<svg width="21" height="21" viewBox="0 0 21 21" fill="none" xmlns="http://www.w3.org/2000/svg">
<path d="M9.37588 10.7061L8.79297 13.1213C9.54242 13.2878 11.8324 14.0374 12.1655 12.6632C12.4986 11.2474 10.1253 10.9143 9.37588 10.7061Z" fill="#76B7FF"/>
<path d="M12.1655 12.7047C12.5402 11.2889 10.1253 10.9142 9.37588 10.7476L8.79297 13.1211" fill="#76B7FF"/>
<path d="M10.2084 7.41623L9.66711 9.62322C10.2917 9.78979 12.2069 10.4144 12.4984 9.16517C12.7898 7.87428 10.8329 7.58279 10.2084 7.41623Z" fill="#76B7FF"/>
<path d="M12.4984 9.16517C12.8315 7.87428 10.8329 7.58279 10.2084 7.41623L9.66711 9.62322" fill="#76B7FF"/>
<path d="M12.6649 0.878507C7.29382 -0.454016 1.8811 2.83565 0.548737 8.16574C-0.783625 13.5375 2.46401 18.9509 7.83509 20.2834C13.2062 21.6159 18.6189 18.3679 19.9513 12.9961C21.2836 7.66605 18.036 2.25267 12.6649 0.878507ZM14.6635 9.16514C14.5385 10.1229 13.9973 10.6226 13.2478 10.7892C14.2471 11.2888 14.7467 12.08 14.2471 13.4542C13.6642 15.1615 12.2485 15.2864 10.3749 14.9533L9.91691 16.7855L8.83437 16.4524L9.29237 14.6618C9.00091 14.5785 8.70946 14.4952 8.418 14.4536L7.96 16.2442L6.87746 15.9527L7.33546 14.1205C7.08564 14.0372 6.83582 13.9955 6.54437 13.9123L5.12873 13.5375L5.67 12.2882L6.46109 12.4964C6.75255 12.5797 6.91909 12.3715 6.96073 12.2466L7.66855 9.37334C7.71018 9.37334 7.75182 9.37334 7.79346 9.41499C7.75182 9.41499 7.71018 9.37334 7.66855 9.37334L8.16818 7.33292C8.16818 7.08307 8.08491 6.79158 7.66855 6.7083L6.87746 6.50009L7.16891 5.33413L8.66782 5.7089C8.876 5.75055 9.12582 5.83383 9.37564 5.87547L9.83364 4.08489L10.9162 4.37638L10.4582 6.12532C10.7496 6.2086 11.0411 6.25024 11.3325 6.33353L11.7489 4.58459L12.8315 4.87608L12.3735 6.66666C13.8307 7.12471 14.8716 7.83261 14.6635 9.16514Z" fill="#76B7FF"/>
<path d="M0.548737 8.16561C-0.783625 13.5374 2.46401 18.9507 7.83509 20.2833C13.2062 21.6158 18.6189 18.3677 19.9513 12.996C21.2836 7.62428 18.036 2.2109 12.6649 0.878376L0.548737 8.16561ZM14.6635 9.16501C14.5385 10.1228 13.9973 10.6225 13.2478 10.789C14.2471 11.2887 14.7467 12.0799 14.2471 13.4541C13.6642 15.1614 12.2485 15.2863 10.3749 14.9532L9.91691 16.7854L8.83437 16.4522L9.29237 14.6617C9.00091 14.5784 8.70946 14.4951 8.418 14.4535L7.96 16.244L6.87746 15.9525L7.33546 14.1203C7.08564 14.037 6.83582 13.9954 6.54437 13.9121L5.12873 13.5374L5.67 12.2881L6.46109 12.4963C6.75255 12.5796 6.91909 12.3714 6.96073 12.2465L7.66855 9.37321C7.71018 9.37321 7.75182 9.37321 7.79346 9.41486C7.75182 9.41486 7.71018 9.37321 7.66855 9.37321L8.16818 7.33279C8.16818 7.08294 8.08491 6.79145 7.66855 6.70817L6.87746 6.49996L7.16891 5.334L8.66782 5.70877C8.876 5.75042 9.12582 5.8337 9.37564 5.87534L9.83364 4.08476L10.9162 4.37625L10.4582 6.12519C10.7496 6.20847 11.0411 6.25011 11.3325 6.33339L11.7489 4.58446L12.8315 4.87595L12.3735 6.66653C13.8307 7.12458 14.8716 7.83248 14.6635 9.16501Z" fill="#76B7FF"/>
<path d="M19.8681 13.3708L14.4554 7.95747C14.6636 8.2906 14.7885 8.70701 14.7052 9.20671C14.5803 10.1645 14.039 10.6642 13.2896 10.8307C14.2889 11.3304 14.7885 12.1216 14.2889 13.4958C13.706 15.2031 12.2903 15.328 10.4167 14.9949L9.95869 16.8271L8.83451 16.4523L9.29251 14.6617C9.00105 14.5784 8.7096 14.4952 8.41814 14.4535L7.96015 16.2441L7.71033 16.1608L11.9572 20.4082C15.6212 19.7836 18.7856 17.1186 19.8681 13.3708Z" fill="#76B7FF"/>
<path d="M5.12854 13.5792L7.00217 15.453L7.33526 14.1205C7.08545 14.0372 6.83563 13.9956 6.54417 13.9123L5.12854 13.5792Z" fill="#76B7FF"/>
<path d="M12.623 6.12525L12.4564 6.66659C12.9561 6.83316 13.4141 7.04136 13.7888 7.29121L12.623 6.12525Z" fill="#76B7FF"/>
<path d="M10.9576 4.37643L10.4996 6.12537C10.7911 6.20865 11.0825 6.25029 11.374 6.33357L11.6655 5.08433L10.9576 4.37643Z" fill="#76B7FF"/>
<path d="M12.9144 4.83448L12.4564 6.62506L12.4981 6.6667C13.7471 7.08312 14.7048 7.74938 14.7048 8.87369L19.7011 13.8707C19.7844 13.5792 19.8677 13.2877 19.951 13.0378C20.0342 12.7047 20.0759 12.4132 20.1175 12.0801L12.9144 4.83448Z" fill="#76B7FF"/>
<path d="M13.8726 19.9087L10.0837 16.1194L9.91715 16.744L8.8346 16.4525L9.16769 15.1616L8.41824 14.4121L7.96024 16.2026L6.8777 15.9112V15.8695L6.83606 15.9112L11.3744 20.4501C12.2488 20.4084 13.0815 20.2002 13.8726 19.9087Z" fill="#76B7FF"/>
<path d="M14.9131 19.4087L10.4164 14.9115C10.4164 14.9115 10.4164 14.9115 10.3748 14.9115L9.91676 16.7437L8.87585 16.4938L12.6648 20.2832C13.4558 20.075 14.2053 19.7835 14.9131 19.4087Z" fill="#76B7FF"/>
</svg>
