<svg width="57" height="57" viewBox="0 0 57 57" fill="none" xmlns="http://www.w3.org/2000/svg">
<path d="M0 8C0 3.58172 3.58172 0 8 0H49C53.4183 0 57 3.58172 57 8V49C57 53.4183 53.4183 57 49 57H8C3.58172 57 0 53.4183 0 49V8Z" fill="#3B5998"/>
<path d="M35.5779 56.9998V35.9192H42.654L43.7134 27.7038H35.5779V22.4583C35.5779 20.0797 36.2386 18.4588 39.6496 18.4588L44 18.4568V11.109C43.2472 11.0089 40.6649 10.7852 37.6607 10.7852C31.3882 10.7852 27.0941 14.6138 27.0941 21.645V27.7038H20V35.9192H27.0941V56.9998H35.5779Z" fill="white"/>
</svg>
