<svg width="206" height="306" viewBox="0 0 206 306" fill="none" xmlns="http://www.w3.org/2000/svg">
<path d="M101.35 138.448L101.739 136.999L101.739 136.999L102.127 135.55L103.576 135.938L103.576 135.938L103.65 135.958C103.957 136.039 104.674 136.221 105.817 136.508L101.35 138.448ZM101.35 138.448L101.351 138.448M101.35 138.448L101.351 138.448M101.351 138.448L97.0427 154.535L96.6546 155.984L98.1035 156.372C98.2787 156.419 98.9146 156.599 100.043 156.922C101.17 157.244 102.08 157.488 102.766 157.65C103.43 157.808 104.403 158.026 105.676 158.306C106.987 158.594 108.132 158.784 109.101 158.863C109.102 158.863 109.102 158.863 109.102 158.863L109.224 157.368M101.351 138.448L115.805 158.654M109.224 157.368C110.102 157.44 111.139 157.494 112.333 157.528M109.224 157.368C108.346 157.296 107.271 157.121 105.998 156.841C104.726 156.561 103.763 156.345 103.111 156.191C102.459 156.036 101.574 155.799 100.455 155.479C99.3358 155.159 98.6825 154.974 98.4916 154.923M109.224 157.368L98.4916 154.923M112.333 157.528L112.29 159.027M112.333 157.528C113.528 157.562 114.546 157.457 115.386 157.213C116.227 156.969 117.071 156.644 117.914 156.237M112.333 157.528L112.291 159.027C112.29 159.027 112.29 159.027 112.29 159.027M112.29 159.027C113.588 159.064 114.771 158.954 115.805 158.654M112.29 159.027L117.914 156.237M115.805 158.654C116.731 158.385 117.652 158.029 118.566 157.588L115.805 158.654ZM117.914 156.237L118.566 157.588C119.636 157.071 120.537 156.314 121.253 155.339L117.914 156.237ZM117.914 156.237C118.757 155.83 119.468 155.235 120.045 154.451C120.622 153.666 121.053 152.741 121.339 151.674C121.675 150.418 121.735 149.24 121.519 148.142C121.304 147.043 120.937 146.088 120.419 145.276L117.914 156.237ZM98.4916 154.923L98.8797 153.474L98.4916 154.923ZM108.906 137.273L108.906 137.274C109.804 137.492 110.952 137.855 112.333 138.349L112.333 138.349C113.726 138.848 114.913 139.336 115.882 139.814C116.875 140.305 117.911 140.947 118.987 141.728C120.12 142.55 121.04 143.458 121.684 144.469L108.906 137.273ZM108.906 137.273C108.088 137.075 107.059 136.819 105.817 136.508L108.906 137.273ZM117.981 183.63L117.981 183.63C117.293 184.527 116.505 185.282 115.609 185.878L115.607 185.88C114.684 186.491 113.604 186.922 112.401 187.198C112.4 187.199 112.4 187.199 112.399 187.199L112.063 185.737L117.981 183.63ZM117.981 183.63C118.712 182.676 119.232 181.571 119.563 180.338L119.563 180.338M117.981 183.63L119.563 180.338M105.528 187.657L105.526 187.657C104.197 187.551 103.028 187.418 102.019 187.255L102.019 187.255C101.023 187.095 99.8597 186.866 98.5313 186.573L98.5296 186.573C97.2141 186.281 96.1714 186.034 95.4165 185.832C94.6807 185.635 93.76 185.377 92.6577 185.062C91.553 184.747 90.8659 184.553 90.5756 184.475L89.1266 184.087L89.5147 182.638L94.6857 163.331L95.0738 161.882L96.5227 162.27C96.8038 162.345 97.6909 162.563 99.214 162.93L99.2144 162.93C100.737 163.296 101.982 163.61 102.951 163.87C103.951 164.137 105.287 164.558 106.946 165.127M105.528 187.657L119.695 175.72C119.37 174.331 118.825 173.083 118.044 171.996L118.044 171.995C117.26 170.906 116.178 169.917 114.855 169.011M105.528 187.657C106.873 187.762 108.082 187.784 109.139 187.706L105.528 187.657ZM106.946 165.127L106.459 166.545L106.945 165.126C106.945 165.126 106.945 165.126 106.946 165.127ZM106.946 165.127C108.626 165.701 110.054 166.272 111.214 166.845L111.215 166.846C112.37 167.418 113.584 168.141 114.855 169.011M114.855 169.011L114.007 170.249L114.855 169.011C114.855 169.011 114.855 169.011 114.855 169.011ZM119.563 180.338C119.985 178.761 120.046 177.212 119.695 175.721L119.563 180.338ZM133.612 185.788C132.672 188.288 131.496 190.343 130.106 191.986L92.8996 208.804L96.3512 195.917L96.7393 194.468L95.2903 194.08C92.2466 193.265 89.943 192.628 88.3726 192.166L86.898 191.732L86.5004 193.217L83.0333 206.162L77.1326 204.582L80.6455 191.465L81.0336 190.016L79.5846 189.628C78.9095 189.448 77.8925 189.165 76.5285 188.779L76.5264 188.779C75.159 188.394 74.1072 188.102 73.3737 187.906L63.6642 185.305L66.9677 178.093L72.0834 179.463C73.2815 179.784 74.4928 179.776 75.5885 179.234C76.6768 178.695 77.4298 177.737 77.9359 176.595L77.9832 176.489L78.0135 176.376L84.1631 153.415L83.7481 153.304L83.7683 153.247L84.1785 153.357L88.5692 136.964L88.606 136.826L88.6163 136.685C88.7358 135.046 88.3952 133.538 87.4463 132.307C86.5105 131.093 85.1176 130.324 83.4648 129.881L78.5736 128.571L80.3046 122.108L90.9448 125.012L90.9448 125.012L90.9517 125.014C93.3928 125.668 95.2622 126.147 96.5521 126.451L97.9685 126.785L98.3449 125.379L101.812 112.434L107.711 114.014L104.321 126.673L103.923 128.158L105.417 128.519C108.558 129.279 110.876 129.859 112.381 130.262L113.83 130.65L114.218 129.201L117.578 116.656L123.476 118.235L120.009 131.181L119.653 132.507L120.943 132.978C123.823 134.029 126.299 135.14 128.378 136.304C130.431 137.454 132.247 138.808 133.824 140.363L133.825 140.364C135.337 141.851 136.373 143.543 136.965 145.455C137.552 147.354 137.665 149.475 137.254 151.853L137.252 151.865C136.701 155.214 135.549 157.766 133.88 159.626C132.219 161.476 129.954 162.743 126.989 163.375L123.01 164.223L126.587 166.161C130.539 168.302 133.06 170.927 134.339 173.981C135.579 176.943 135.455 180.822 133.612 185.788ZM122.991 147.853C122.745 146.601 122.318 145.464 121.684 144.47L122.991 147.853Z" stroke="#FDD674" stroke-width="3"/>
<path d="M171.023 262.68V249.177L162.941 243.855L140.272 236.956L162.941 257.456L171.023 262.68Z" fill="#F9896B"/>
<path d="M16.1436 65.1547L24.5968 63.1763L2.11475 47.8885L6.07161 32.7805L24.5968 38.5359L48.6976 91.7735L16.1436 65.1547Z" fill="#F9896B"/>
<path d="M205.254 0L184.151 1.46799L180.848 20.5519L168.187 26.4239L148.552 78.7211L205.254 0Z" fill="#F9896B"/>
<path d="M0 300.756L64.8187 257.377L35.3884 291.258V297.123L15.8765 305.995L0 300.756Z" fill="#F9896B"/>
</svg>
