<svg width="31" height="20" viewBox="0 0 31 20" fill="none" xmlns="http://www.w3.org/2000/svg">
<path d="M14.4232 7.36855H11.9709V19.3592H14.4232V7.36855Z" fill="white"/>
<path d="M16.6709 7.38832V9.63633H18.7354V16.4011C18.7354 17.3342 18.9919 18.084 19.4846 18.6494C19.9776 19.2341 20.6349 19.5237 21.4631 19.5435C22.2851 19.5627 23.0147 19.3791 23.6327 18.9983L23.6723 18.9784V18.9388L24.2572 16.6578L24.1127 16.7497C23.4554 17.151 22.8504 17.3481 22.2982 17.3481C21.5358 17.3481 21.148 16.8942 21.148 16.0005V9.63649H23.6531V7.38848H21.148V3.64097L18.7356 4.93638V7.38832H16.6709V7.38832Z" fill="white"/>
<path d="M28.537 7.36855H26.0652V19.3592H28.537V7.36855Z" fill="white"/>
<path d="M10.564 9.25544L10.5115 9.21609C9.38071 7.842 7.96759 7.17121 6.27139 7.17121C4.49683 7.17121 3.03682 7.71675 1.86705 8.79523C0.624546 9.93233 0 11.4638 0 13.3834C0 15.3027 0.624546 16.8217 1.86705 17.9716C3.01763 19.0498 4.49691 19.5822 6.27139 19.5822C7.96751 19.5822 9.39388 18.905 10.5115 17.5508L10.564 17.5114L9.17702 15.8351L9.12444 15.8874C8.22411 16.7817 7.25738 17.242 6.2188 17.242C5.13397 17.242 4.24031 16.8737 3.5301 16.144C2.81331 15.4275 2.47201 14.5004 2.47201 13.3835C2.47201 12.2657 2.81355 11.3326 3.5301 10.6029C4.24031 9.89267 5.13397 9.52439 6.2188 9.52439C7.2573 9.52439 8.22403 9.98435 9.12444 10.8787L9.17702 10.9316L10.564 9.25544Z" fill="white"/>
<path d="M13.1804 5.39678C14.1468 4.41054 15.225 3.66099 16.4539 3.12837C17.637 2.61559 18.8996 2.36565 20.201 2.36565C21.4964 2.36565 22.7584 2.61559 23.9678 3.12837C25.1707 3.66067 26.2492 4.41054 27.2156 5.39678L27.2549 5.42921H30.0683L29.9629 5.26463C28.8454 3.69375 27.3994 2.45124 25.6636 1.54401C23.9284 0.643679 22.1205 0.202667 20.2006 0.202667C18.3012 0.202667 16.4668 0.643679 14.7313 1.54401C12.9961 2.45124 11.5499 3.69375 10.439 5.26463L10.3269 5.42921H13.1604L13.1804 5.39678Z" fill="#EA2230"/>
<path d="M14.4232 7.36855H11.9709V19.3592H14.4232V7.36855Z" fill="white"/>
<path d="M16.6709 7.38832V9.63633H18.7354V16.4011C18.7354 17.3342 18.9919 18.084 19.4846 18.6494C19.9776 19.2341 20.6349 19.5237 21.4631 19.5435C22.2851 19.5627 23.0147 19.3791 23.6327 18.9983L23.6723 18.9784V18.9388L24.2572 16.6578L24.1127 16.7497C23.4554 17.151 22.8504 17.3481 22.2982 17.3481C21.5358 17.3481 21.148 16.8942 21.148 16.0005V9.63649H23.6531V7.38848H21.148V3.64097L18.7356 4.93638V7.38832H16.6709V7.38832Z" fill="white"/>
<path d="M28.537 7.36855H26.0652V19.3592H28.537V7.36855Z" fill="white"/>
<path d="M10.564 9.25544L10.5115 9.21609C9.38071 7.842 7.96759 7.17121 6.27139 7.17121C4.49683 7.17121 3.03682 7.71675 1.86705 8.79523C0.624546 9.93233 0 11.4638 0 13.3834C0 15.3027 0.624546 16.8217 1.86705 17.9716C3.01763 19.0498 4.49691 19.5822 6.27139 19.5822C7.96751 19.5822 9.39388 18.905 10.5115 17.5508L10.564 17.5114L9.17702 15.8351L9.12444 15.8874C8.22411 16.7817 7.25738 17.242 6.2188 17.242C5.13397 17.242 4.24031 16.8737 3.5301 16.144C2.81331 15.4275 2.47201 14.5004 2.47201 13.3835C2.47201 12.2657 2.81355 11.3326 3.5301 10.6029C4.24031 9.89267 5.13397 9.52439 6.2188 9.52439C7.2573 9.52439 8.22403 9.98435 9.12444 10.8787L9.17702 10.9316L10.564 9.25544Z" fill="white"/>
<path d="M13.1804 5.39678C14.1468 4.41054 15.225 3.66099 16.4539 3.12837C17.637 2.61559 18.8996 2.36565 20.201 2.36565C21.4964 2.36565 22.7584 2.61559 23.9678 3.12837C25.1707 3.66067 26.2492 4.41054 27.2156 5.39678L27.2549 5.42921H30.0683L29.9629 5.26463C28.8454 3.69375 27.3994 2.45124 25.6636 1.54401C23.9284 0.643679 22.1205 0.202667 20.2006 0.202667C18.3012 0.202667 16.4668 0.643679 14.7313 1.54401C12.9961 2.45124 11.5499 3.69375 10.439 5.26463L10.3269 5.42921H13.1604L13.1804 5.39678Z" fill="#E92F30"/>
</svg>
