<svg width="21" height="21" viewBox="0 0 21 21" fill="none" xmlns="http://www.w3.org/2000/svg">
<path d="M17.1723 1.76607V2.96991H15.9842V1.76607H12.8792V2.96991H11.6911V1.76607H8.58614V2.96991H7.39802V1.76607H4.29307V2.96991H3.10495V1.76607H0V4.54334H20.2772V1.76607H17.1723Z" fill="white"/>
<path d="M16.5664 20.5821L20.277 16.8516H16.5664V20.5821Z" fill="white"/>
<path d="M0 20.5821H15.3785V15.6635H20.2772V5.73149H0V20.5821ZM7.33208 15.1238H10.0504C10.8279 15.1238 11.4604 14.4993 11.4604 13.7318C11.4604 12.9644 10.8279 12.3399 10.0504 12.3399H7.40602V8.52678H12.2771V9.7149H8.59414V11.1518H10.0504C11.483 11.1518 12.6485 12.3092 12.6485 13.7318C12.6485 15.1545 11.483 16.3119 10.0504 16.3119H7.33208V15.1238Z" fill="white"/>
<path d="M15.9839 0.582153H17.172V1.76611H15.9839V0.582153Z" fill="white"/>
<path d="M11.6914 0.582153H12.8795V1.76611H11.6914V0.582153Z" fill="white"/>
<path d="M7.39819 0.582153H8.58631V1.76611H7.39819V0.582153Z" fill="white"/>
<path d="M3.10474 0.582153H4.29286V1.76611H3.10474V0.582153Z" fill="white"/>
</svg>
