<svg width="48" height="48" viewBox="0 0 48 48" fill="none" xmlns="http://www.w3.org/2000/svg">
<rect x="7" y="7" width="34" height="34" rx="10" fill="white"/>
<path fill-rule="evenodd" clip-rule="evenodd" d="M30.2431 18.3428H19.486L18.7288 20.7285H28.5145H31.9288C31.9288 20.7285 32.6002 18.3428 30.2431 18.3428ZM22.586 22.0142H16.786L16.0288 24.2285H21.8431L22.586 22.0142ZM16.4002 27.8999L17.1717 25.5142H26.9431H26.9717L26.9717 25.5142H30.4002C30.3959 25.5252 29.4522 27.8999 27.2145 27.8999H16.4002ZM30.4002 25.5142H26.9717L28.5145 20.7285H31.9288L30.4002 25.5142ZM30.4002 25.5142C30.4002 25.5142 30.4002 25.5142 30.4002 25.5142H30.4002L30.4002 25.5142Z" fill="#4F46BA"/>
<rect x="1" y="1" width="46" height="46" rx="12" stroke="white" stroke-width="2"/>
</svg>
