<svg width="29" height="29" viewBox="0 0 29 29" fill="none" xmlns="http://www.w3.org/2000/svg">
<path d="M15.212 13.5976C15.6384 13.5976 15.9854 13.2506 15.9854 12.8241C15.9854 12.3976 15.6384 12.0506 15.212 12.0506H14.0945V13.5976H15.212Z" fill="white"/>
<path d="M14.0945 15.2386V17.1203H15.6333C16.152 17.1203 16.5741 16.6983 16.5741 16.1795C16.5741 15.6607 16.152 15.2386 15.6333 15.2386H14.0945Z" fill="white"/>
<path d="M11.4693 18.7613V17.1203H12.4538V12.0507H11.4693V10.4097H13.8568V9.01425H10.0938L9.10864 9.99951V19.1646L10.0938 20.1499H13.8568V18.7613H11.4693Z" fill="white"/>
<path d="M15.4973 9.01425V10.4271C16.6945 10.5689 17.6262 11.5894 17.6262 12.8241C17.6262 13.314 17.4792 13.7699 17.2275 14.151C17.8281 14.6241 18.2149 15.3572 18.2149 16.1794C18.2149 17.603 17.0567 18.7613 15.6331 18.7613H15.4973V20.1499H19.2585L20.2437 19.1646V9.99951L19.2585 9.01431H15.4973V9.01425Z" fill="white"/>
<path d="M28.676 10.9242V9.28319H25.2551V6.72284L22.5353 4.00299H19.9749V0.582153H18.3339V4.00299H15.4965V0.582153H13.8555V4.00299H11.018V0.582153H9.37701V4.00299H6.81666L4.09681 6.72284V9.28319H0.676025V10.9242H4.09686V13.7617H0.676025V15.4027H4.09686V18.2401H0.676025V19.8811H4.09686V22.4415L6.81671 25.1613H9.37706V28.5822H11.0181V25.1613H13.8555V28.5822H15.4965V25.1613H18.334V28.5822H19.975V25.1613H22.5353L25.2552 22.4415V19.8811H28.676V18.2401H25.2552V15.4026H28.676V13.7616H25.2552V10.9241H28.676V10.9242ZM21.8848 19.8444L19.9383 21.7909H9.41366L7.46721 19.8444V9.31978L9.41366 7.37328H19.9383L21.8847 9.31978V19.8444H21.8848Z" fill="white"/>
</svg>
