<svg width="48" height="48" viewBox="0 0 48 48" fill="none" xmlns="http://www.w3.org/2000/svg">
<rect x="7" y="7" width="34" height="34" rx="10" fill="white"/>
<path fill-rule="evenodd" clip-rule="evenodd" d="M18.1561 25.1618C18.1517 25.0879 18.1494 25.0113 18.1494 24.9319C18.1494 22.3742 20.1431 20.2945 22.6377 20.2058C22.6972 20.2058 22.7617 20.2058 22.8212 20.2107L22.226 19.6193C22.226 19.6193 24.6214 19.2201 27.6963 21.0682C27.6963 21.0682 27.7409 21.1618 27.6963 21.4378C27.6963 21.4378 29.1445 22.0588 29.2685 23.2662C29.3924 24.4736 28.6237 25.1635 28.0038 25.2621C28.0038 25.2621 28.3262 24.7643 27.8302 24.4982C27.7261 24.4391 27.6021 24.4144 27.4781 24.4193C26.5308 24.4193 26.4217 25.4937 26.4217 25.4937C26.4118 25.5479 26.4118 25.6021 26.4118 25.6563C26.4118 25.6563 26.2739 27.0224 28.537 27.1837C29.0373 26.5429 29.4902 25.8288 29.8902 25.0493C30.3086 24.233 30.6425 23.3956 30.9011 22.5717C31.0567 22.0757 31.1664 21.6472 31.2377 21.3072C29.9196 20.2259 28.3641 19.2993 26.6918 18.5234C26.0656 18.2328 25.4578 17.98 24.8832 17.7636C24.5278 17.6298 24.2376 17.5291 23.9963 17.451C23.7618 17.5264 23.4642 17.6295 23.1078 17.7636C22.5338 17.9797 21.9258 18.2326 21.2995 18.5234C19.6288 19.299 18.0736 20.2258 16.7551 21.3074C16.8263 21.6511 16.9349 22.0794 17.0903 22.5769C17.348 23.4018 17.6822 24.2405 18.1029 25.0592C18.1205 25.0935 18.1383 25.1277 18.1561 25.1618ZM32 21.0195L31.9639 21.2227C31.9446 21.3807 31.8159 21.9466 31.6572 22.4884C31.3806 23.4325 31.0048 24.4083 30.5164 25.3614C29.8578 26.6455 29.0574 27.7661 28.1397 28.6879C27.0069 29.8236 25.697 30.662 24.2362 31.1843L24.1548 31.2129L23.9999 31.2727L23.8462 31.2188L23.7608 31.1888C22.2969 30.6654 20.9828 29.8252 19.8578 28.6923C18.9359 27.7611 18.1369 26.6439 17.4815 25.3661C16.9936 24.4117 16.6192 23.437 16.3427 22.4914C16.2457 22.1597 16.1679 21.8551 16.1068 21.5821C16.0703 21.4186 16.0303 21.2153 16.0376 21.2441L16 21.0352L16.087 20.9621L16.1514 20.9079C17.4924 19.779 19.0787 18.8106 20.7915 17.9969C21.9326 17.4548 22.9757 17.0523 23.7635 16.7996L23.9952 16.7273L24.1528 16.7742L24.2311 16.8001C25.0174 17.0523 26.0605 17.4548 27.2016 17.9969C28.9117 18.8093 30.4958 19.776 31.8354 20.9027L32 21.0195ZM26.4713 21.5462C26.511 21.5265 26.6399 21.4625 26.7887 21.3097C27.0863 21.3491 27.3789 21.4427 27.3789 21.4427C26.8383 21.1175 26.0994 20.9253 25.2811 20.9302C25.2811 20.9302 25.5935 21.3738 26.4614 21.5561C26.4614 21.5561 26.4664 21.5512 26.4713 21.5462Z" fill="#4F46BA"/>
<rect x="1" y="1" width="46" height="46" rx="12" stroke="white" stroke-width="2"/>
</svg>
