<svg width="48" height="48" viewBox="0 0 48 48" fill="none" xmlns="http://www.w3.org/2000/svg">
<rect x="7" y="7" width="34" height="34" rx="10" fill="white"/>
<path fill-rule="evenodd" clip-rule="evenodd" d="M30.3864 26.8144C30.3864 27.5297 29.8043 28.1114 29.0895 28.1114C28.3746 28.1114 27.7925 27.5297 27.7925 26.8144V24.7127H30.3864V26.8144ZM17.1909 22.8957V20.7935C17.1909 20.0787 17.7726 19.4965 18.4879 19.4965C19.2028 19.4965 19.7844 20.0787 19.7844 20.7935V22.8957H17.1909ZM27.7925 22.8957H21.3984V20.7935C21.3984 20.7205 21.3943 20.648 21.3889 20.5759C22.1151 19.4017 24.3167 19.0645 25.1429 19.0353L25.1155 18.2288L25.0891 17.4227C24.9531 17.4268 22.3063 17.5317 20.7109 18.9181C20.1767 18.2858 19.3784 17.883 18.4879 17.883C16.8825 17.883 15.5769 19.1891 15.5769 20.7935V24.7127H26.1789V26.8144C26.1789 26.8883 26.1826 26.9608 26.188 27.0325C25.4618 28.2062 23.2606 28.5434 22.434 28.573L22.4618 29.3796L22.4874 30.1857C22.6242 30.1811 25.2706 30.0767 26.8664 28.6903C27.4006 29.3226 28.199 29.7249 29.0895 29.7249C30.6948 29.7249 32 28.4197 32 26.8144V22.8957H27.7925V22.8957Z" fill="#4F46BA"/>
<rect x="1" y="1" width="46" height="46" rx="12" stroke="white" stroke-width="2"/>
</svg>
