<svg width="18" height="18" viewBox="0 0 18 18" fill="none" xmlns="http://www.w3.org/2000/svg">
<path d="M17.6583 7.84272L9.74511 0.665351C9.39778 0.350267 8.874 0.350301 8.52681 0.665317L0.613564 7.84275C0.335331 8.09512 0.243426 8.48396 0.379355 8.83333C0.51532 9.18271 0.84636 9.40843 1.22277 9.40843H2.48665V16.5996C2.48665 16.8847 2.71889 17.1159 3.00532 17.1159H7.34274C7.62917 17.1159 7.86142 16.8848 7.86142 16.5996V12.2334H10.4106V16.5997C10.4106 16.8848 10.6428 17.1159 10.9293 17.1159H15.2665C15.5529 17.1159 15.7852 16.8848 15.7852 16.5997V9.40843H17.0493C17.4257 9.40843 17.7567 9.18267 17.8927 8.83333C18.0285 8.48393 17.9366 8.09512 17.6583 7.84272Z" fill="#4F37FD"/>
<path d="M15.6497 1.45959H12.1664L16.1684 5.08178V1.97585C16.1684 1.69074 15.9361 1.45959 15.6497 1.45959Z" fill="#4F37FD"/>
</svg>
