<svg width="20" height="17" viewBox="0 0 20 17" fill="none" xmlns="http://www.w3.org/2000/svg">
<path d="M19.6974 5.32105L18.6137 1.00391C18.4808 0.473503 18.0019 0.101624 17.4522 0.101624H2.82096C2.27135 0.101624 1.79238 0.473503 1.65827 1.00391L0.574602 5.32105C0.562628 5.36753 0.556641 5.4164 0.556641 5.46527C0.556641 7.10774 1.83189 8.44507 3.40051 8.44507C4.31175 8.44507 5.1248 7.99333 5.64568 7.29248C6.16656 7.99333 6.9796 8.44507 7.89084 8.44507C8.80208 8.44507 9.61513 7.99333 10.136 7.29248C10.6569 7.99333 11.4687 8.44507 12.3812 8.44507C13.2936 8.44507 14.1055 7.99333 14.6263 7.29248C15.1472 7.99333 15.9591 8.44507 16.8715 8.44507C18.4401 8.44507 19.7154 7.10774 19.7154 5.46527C19.7154 5.4164 19.7094 5.36753 19.6974 5.32105Z" fill="#1B1D4E"/>
<path d="M16.8712 9.63699C16.0558 9.63699 15.281 9.38907 14.6261 8.93614C13.3161 9.84319 11.4457 9.84319 10.1357 8.93614C8.82575 9.84319 6.95538 9.84319 5.6454 8.93614C4.99041 9.38907 4.21568 9.63699 3.40024 9.63699C2.8123 9.63699 2.2579 9.49992 1.75378 9.2663V15.5966C1.75378 16.2545 2.29023 16.7885 2.9512 16.7885H7.74089V12.0208H12.5306V16.7885H17.3203C17.9812 16.7885 18.5177 16.2545 18.5177 15.5966V9.2663C18.0136 9.49992 17.4592 9.63699 16.8712 9.63699Z" fill="#1B1D4E"/>
</svg>
