<svg width="30" height="31" viewBox="0 0 30 31" fill="none" xmlns="http://www.w3.org/2000/svg">
<path d="M15 0.202667C11.0218 0.202667 7.20644 1.78302 4.3934 4.59607C1.58035 7.40911 0 11.2244 0 15.2027C0 19.1809 1.58035 22.9962 4.3934 25.8093C7.20644 28.6223 11.0218 30.2027 15 30.2027C18.9782 30.2027 22.7936 28.6223 25.6066 25.8093C28.4196 22.9962 30 19.1809 30 15.2027C30 11.2244 28.4196 7.40911 25.6066 4.59607C22.7936 1.78302 18.9782 0.202667 15 0.202667ZM20.3125 1.60267C20.7125 1.60267 21.125 1.64017 21.3875 1.72767C18.675 2.29017 16.5125 4.81517 16.525 7.70267C16.525 7.76517 16.525 7.84017 16.5375 7.91517C21.0875 9.02767 23.125 11.7652 23.125 15.5527C23.175 19.3402 20.175 23.5027 15.1125 23.5152C11.025 23.5277 6.7625 20.0277 6.7375 14.4152C6.725 10.7027 8.75 7.12767 11.3 5.01517C13.8 2.94017 17.2125 1.61517 20.3125 1.60267Z" fill="white"/>
</svg>
