<svg width="20" height="17" viewBox="0 0 20 17" fill="none" xmlns="http://www.w3.org/2000/svg">
<path d="M18.9976 0.831619C19.5498 0.831619 19.9976 1.27933 19.9976 1.83162V15.5523C19.9976 16.1046 19.5498 16.5523 18.9976 16.5523H1.27534C0.723052 16.5523 0.275337 16.1046 0.275337 15.5523V1.83162C0.275337 1.27933 0.723052 0.831619 1.27534 0.831619H18.9976ZM8.78825 13.2931C8.78825 13.6108 9.04575 13.8683 9.36339 13.8683H16.726C17.0437 13.8683 17.3012 13.6108 17.3012 13.2931V13.2931C17.3012 12.9755 17.0437 12.718 16.726 12.718H9.3634C9.04575 12.718 8.78825 12.9755 8.78825 13.2931V13.2931ZM8.78825 10.9925C8.78825 11.3102 9.04575 11.5677 9.36339 11.5677H16.726C17.0437 11.5677 17.3012 11.3102 17.3012 10.9925V10.9925C17.3012 10.6749 17.0437 10.4174 16.726 10.4174H9.3634C9.04575 10.4174 8.78825 10.6749 8.78825 10.9925V10.9925ZM8.78825 8.69195C8.78825 9.00959 9.04575 9.26709 9.36339 9.26709H16.726C17.0437 9.26709 17.3012 9.00959 17.3012 8.69195V8.69195C17.3012 8.3743 17.0437 8.1168 16.726 8.1168H9.3634C9.04575 8.1168 8.78825 8.3743 8.78825 8.69195V8.69195ZM8.78825 6.39136C8.78825 6.70901 9.04575 6.96651 9.36339 6.96651H16.726C17.0437 6.96651 17.3012 6.70901 17.3012 6.39136V6.39136C17.3012 6.07372 17.0437 5.81622 16.726 5.81622H9.3634C9.04575 5.81622 8.78825 6.07372 8.78825 6.39136V6.39136ZM2.97173 10.5677C2.97173 11.12 3.41945 11.5677 3.97173 11.5677H6.59413C7.14641 11.5677 7.59413 11.12 7.59413 10.5677V6.81622C7.59413 6.26393 7.14642 5.81622 6.59413 5.81622H3.97173C3.41945 5.81622 2.97173 6.26393 2.97173 6.81622V10.5677ZM1.43094 2.55706C1.43094 2.8747 1.68844 3.1322 2.00608 3.1322H18.2668C18.5845 3.1322 18.842 2.8747 18.842 2.55706V2.55706C18.842 2.23941 18.5845 1.98191 18.2668 1.98191H2.00608C1.68844 1.98191 1.43094 2.23941 1.43094 2.55706V2.55706Z" fill="#1B1D4E"/>
</svg>
