<svg width="14" height="25" viewBox="0 0 14 25" fill="none" xmlns="http://www.w3.org/2000/svg">
<path d="M10.9927 0.577629H3.00722C1.59797 0.579198 0.455988 1.70015 0.45459 3.08344V21.63C0.455988 23.0133 1.59797 24.1342 3.00722 24.1356H10.9927C12.402 24.1342 13.5439 23.0133 13.5455 21.63V3.08344C13.5439 1.70015 12.402 0.579198 10.9927 0.577629V0.577629ZM7.00006 21.9941C6.39741 21.9941 5.90902 21.5147 5.90902 20.9231C5.90902 20.3318 6.39741 19.8524 7.00006 19.8524C7.60251 19.8524 8.09091 20.3318 8.09091 20.9231C8.09091 21.5147 7.60251 21.9941 7.00006 21.9941ZM8.63643 3.79009H5.36369C5.06247 3.79009 4.81817 3.55029 4.81817 3.25461C4.81817 2.95894 5.06247 2.71933 5.36369 2.71933H8.63643C8.93766 2.71933 9.18175 2.95894 9.18175 3.25461C9.18175 3.55029 8.93766 3.79009 8.63643 3.79009Z" fill="#4F46BA"/>
</svg>
