<svg width="20" height="21" viewBox="0 0 20 21" fill="none" xmlns="http://www.w3.org/2000/svg">
<path d="M14.5023 13.4049C14.6188 12.5126 14.6188 11.6202 14.6188 10.7279C14.6188 9.83552 14.574 8.94317 14.5023 8.05083H19.6121C20.1261 9.79886 20.1261 11.6569 19.6121 13.4049H14.5023ZM12.4942 6.26613C11.9294 2.77705 10.8089 0.912048 10.1365 0.912048C9.46416 0.912048 8.34358 2.77705 7.7788 6.26613H12.4942ZM7.7788 15.1896C8.33461 18.6787 9.46416 20.5437 10.1365 20.5437C10.8089 20.5437 11.9294 18.6787 12.4942 15.1896H7.7788ZM12.7094 8.05083H7.56365C7.49194 8.88071 7.44711 9.76413 7.44711 10.7279C7.44711 11.6916 7.49194 12.575 7.56365 13.4049H12.7094C12.7811 12.575 12.8259 11.6916 12.8259 10.7279C12.8259 9.76413 12.8259 8.88071 12.7094 8.05083ZM5.65418 10.7279C5.65418 9.83552 5.65418 8.94317 5.77072 8.05083H0.660875C0.146896 9.79886 0.146896 11.6569 0.660875 13.4049H5.77072C5.69901 12.5126 5.65418 11.6202 5.65418 10.7279ZM5.97691 15.1896H1.36012C1.97833 16.3881 2.8378 17.4472 3.88502 18.3007C4.93223 19.1543 6.14476 19.7842 7.44711 20.1511C6.69605 18.5852 6.1998 16.9105 5.97691 15.1896V15.1896ZM14.2961 15.1896C14.0732 16.9105 13.577 18.5852 12.8259 20.1511C14.1283 19.7842 15.3408 19.1543 16.388 18.3007C17.4352 17.4472 18.2947 16.3881 18.9129 15.1896H14.2961ZM14.2961 6.26613H18.9129C18.2947 5.06759 17.4352 4.00857 16.388 3.15499C15.3408 2.30142 14.1283 1.67158 12.8259 1.30468C13.577 2.87051 14.0732 4.54522 14.2961 6.26613ZM5.97691 6.26613C6.1998 4.54522 6.69605 2.87051 7.44711 1.30468C6.14476 1.67158 4.93223 2.30142 3.88502 3.15499C2.8378 4.00857 1.97833 5.06759 1.36012 6.26613H5.97691Z" fill="#1B1D4E"/>
</svg>
