<svg width="21" height="18" viewBox="0 0 21 18" fill="none" xmlns="http://www.w3.org/2000/svg">
<path d="M14.8146 6.32559H20.2726V3.80314C20.2726 2.19828 18.961 0.892639 17.3487 0.892639H2.92393C1.31166 0.892639 0 2.19828 0 3.80314V14.669C0 16.2739 1.31166 17.5795 2.92393 17.5795H17.3487C18.961 17.5795 20.2726 16.2739 20.2726 14.669V12.1466H14.8146C13.2024 12.1466 11.8907 10.841 11.8907 9.23609C11.8907 7.63122 13.2024 6.32559 14.8146 6.32559Z" fill="#1B1D4E"/>
<path d="M14.8146 7.48984C13.8472 7.48984 13.0602 8.27321 13.0602 9.23616C13.0602 10.1991 13.8472 10.9825 14.8146 10.9825H20.2726V7.48988H14.8146V7.48984ZM15.5943 9.81825H14.8146C14.4916 9.81825 14.2298 9.55761 14.2298 9.23616C14.2298 8.9147 14.4916 8.65406 14.8146 8.65406H15.5943C15.9172 8.65406 16.179 8.9147 16.179 9.23616C16.179 9.55761 15.9172 9.81825 15.5943 9.81825Z" fill="#1B1D4E"/>
</svg>
